# xmcd
# 
# Track frame offsets:
#     150
#     18071
#     33633
#     46786
#     68555
# 
# Disc length: 1312
# 
# Revision: 0
# Processed by: cddbd v1.5.2PL0 Copyright (c) Steve Scherf et al.
# Submitted via: BonkEnc v1.0.15
# 
DISCID=31051e05
DTITLE=PolyphonicBranch - PARADISO
DYEAR=2010
DGENRE=Pop
TTITLE0=ふたり
TTITLE1=閉ざされた世界で少年はうたう
TTITLE2=夢で逢いましょう
TTITLE3=はじまりの歌
TTITLE4=砂の城
EXTD=
EXTT0=
EXTT1=
EXTT2=
EXTT3=
EXTT4=
PLAYORDER=
